<svg xmlns="http://www.w3.org/2000/svg" version="1.1" xmlns:xlink="http://www.w3.org/1999/xlink" xmlns:svgjs="http://svgjs.com/svgjs" width="1000" height="1000"><style>
    #light-icon {
      display: inline;
    }
    #dark-icon {
      display: none;
    }

    @media (prefers-color-scheme: dark) {
      #light-icon {
        display: none;
      }
      #dark-icon {
        display: inline;
      }
    }
  </style><g id="light-icon"><svg xmlns="http://www.w3.org/2000/svg" version="1.1" xmlns:xlink="http://www.w3.org/1999/xlink" xmlns:svgjs="http://svgjs.com/svgjs" width="1000" height="1000"><g transform="matrix(1,0,0,1,0,0)"><svg xmlns="http://www.w3.org/2000/svg" version="1.1" xmlns:xlink="http://www.w3.org/1999/xlink" xmlns:svgjs="http://svgjs.com/svgjs" width="220px" height="220px"><svg width="220px" height="220px" viewBox="0 0 220 220" version="1.1" xmlns="http://www.w3.org/2000/svg" xmlns:xlink="http://www.w3.org/1999/xlink">
    <title>Artboard</title>
    <g id="Artboard" stroke="none" stroke-width="1" fill="none" fill-rule="evenodd">
        <circle id="Oval" fill="#F34343" cx="110" cy="110" r="110"></circle>
        <g id="Screenshot-2022-07-26-at-13.41.55" transform="translate(40.000000, 16.992626)" fill="#FFFFFF" fill-rule="nonzero">
            <g id="Group" transform="translate(67.208642, 82.203687) scale(-1, 1) rotate(-180.000000) translate(-67.208642, -82.203687) translate(0.000000, 0.000000)">
                <path d="M64.5,162 C58,158.1 51.7,147.7 45,129.7 C37.3,108.7 30,89.4 28.5,85.9 C27.8,84.3 25.4,78.4 23.2,72.9 C21,67.4 17.9,60 16.2,56.4 C14.6,52.8 12.3,47.7 11,44.9 C9.8,42.2 7.7,37.6 6.4,34.7 C2.5,26 0,17.3 0,12.2 C0,8.1 0.5,6.8 3.4,3.7 C6.4,0.4 7.2,0 12,0 C16.8,0 17.5,0.3 21.4,4.5 C25.2,8.5 29.6,14.6 32.6,19.9 C34,22.5 38.5,23 69,23.9 L92.5,24.7 L98.7,16.8 C109.9,2.6 113,0.2 120.5,0.2 C125.7,0.2 130.1,2.4 132.6,6.1 C134.2,8.4 134.5,10.7 134.4,19.9 C134.4,31.9 133.6,34.7 125,56.4 C122.7,62.2 120,69.4 119,72.4 C118,75.4 115.7,81.7 114,86.4 C110.6,95.5 103.1,118 101,125.4 C95.7,143.7 92.4,152.8 89.6,156.7 C84.1,164.3 72.4,166.7 64.5,162 Z M68.3,88.7 C68.6,87.7 70.2,83.1 72,78.4 C73.7,73.7 75.5,68.8 76,67.4 C76.4,66 78,61.8 79.4,57.9 C80.8,54.1 82,50.6 82,50.2 C82,49.3 75.9,48.6 61.1,47.9 L48.8,47.3 L49.4,50 C49.8,51.4 51,54.7 52.2,57.3 C55.7,65.2 56.8,67.7 59,73.4 C65.4,89.7 67.1,92.6 68.3,88.7 Z" id="Shape"></path>
            </g>
        </g>
    </g>
</svg></svg></g></svg></g><g id="dark-icon"><svg xmlns="http://www.w3.org/2000/svg" version="1.1" xmlns:xlink="http://www.w3.org/1999/xlink" xmlns:svgjs="http://svgjs.com/svgjs" width="1000" height="1000"><rect width="1000" height="1000" rx="500" ry="500" fill="#eeeeee"></rect><g transform="matrix(1,0,0,1,0,0)"><svg xmlns="http://www.w3.org/2000/svg" version="1.1" xmlns:xlink="http://www.w3.org/1999/xlink" xmlns:svgjs="http://svgjs.com/svgjs" width="220px" height="220px"><svg width="220px" height="220px" viewBox="0 0 220 220" version="1.1" xmlns="http://www.w3.org/2000/svg" xmlns:xlink="http://www.w3.org/1999/xlink">
    <title>Artboard</title>
    <g id="Artboard" stroke="none" stroke-width="1" fill="none" fill-rule="evenodd">
        <circle id="Oval" fill="#F34343" cx="110" cy="110" r="110"></circle>
        <g id="Screenshot-2022-07-26-at-13.41.55" transform="translate(48.000000, 36.000000)" fill="#FFFFFF" fill-rule="nonzero">
            <g id="Group" transform="translate(58.500000, 71.500000) scale(-1, 1) rotate(-180.000000) translate(-58.500000, -71.500000) translate(0.000000, 0.000000)">
                <path d="M56.1423336,140.906088 C50.4845791,137.513905 45.0009093,128.468082 39.16907,112.81185 C32.4668069,94.5462457 26.1127133,77.7592858 24.8070776,74.7150185 C24.197781,73.3233534 22.1087639,68.1915885 20.1938316,63.4077398 C18.2788993,58.6238911 15.5805856,52.1874402 14.1008652,49.0561937 C12.7081871,45.9249473 10.7062125,41.4890149 9.57466155,39.053601 C8.53015302,36.7051662 6.70226308,32.7041292 5.57071217,30.1817362 C2.17605944,22.6145574 -7.10542736e-15,15.0473786 -7.10542736e-15,10.6114462 C-7.10542736e-15,7.04530442 0.435211889,5.91457655 2.95944084,3.21822548 C5.57071217,0.347916268 6.26705119,0 10.4450853,0 C14.6231195,0 15.2324161,0.260937201 18.6270688,3.91405801 C21.9346792,7.39322069 25.7645438,12.6989438 28.3758151,17.3088343 C29.5944084,19.5702901 33.5113154,20.0051854 60.0592406,20.787997 L80.5141994,21.4838295 L85.9108268,14.6124832 C95.6595731,2.26145574 98.3578868,0.173958134 104.886065,0.173958134 C109.412269,0.173958134 113.242133,2.08749761 115.418193,5.30572308 C116.810871,7.30624162 117.071998,9.30676016 116.984956,17.3088343 C116.984956,27.7463223 116.288617,30.1817362 108.802972,49.0561937 C106.800997,54.1009796 104.450853,60.3634724 103.580429,62.9728444 C102.710006,65.5822165 100.708031,71.0618977 99.2283106,75.1499138 C96.2688697,83.0650089 89.7406914,102.635299 87.9128015,109.07175 C83.2995555,124.988919 80.427157,132.904014 77.9899704,136.296198 C73.2026397,142.906607 63.0186815,144.994105 56.1423336,140.906088 Z M59.449944,77.1504324 C59.7110711,76.2806417 61.1037492,72.2796046 62.6705119,68.1915885 C64.1502324,64.1035723 65.7169952,59.841598 66.1522071,58.6238911 C66.5003766,57.4061842 67.8930546,53.7530634 69.1116479,50.3608797 C70.3302412,47.0556752 71.3747497,44.0114079 71.3747497,43.6634916 C71.3747497,42.88068 66.0651647,42.2718265 53.1828928,41.6629731 L42.4766803,41.1410987 L42.9989346,43.4895335 C43.3471041,44.7072404 44.3916126,47.5775496 45.4361212,49.8390053 C48.4826044,56.7103516 49.4400705,58.8848283 51.3550028,63.8426351 C56.925715,78.020223 58.4054354,80.542616 59.449944,77.1504324 Z" id="Shape"></path>
            </g>
        </g>
    </g>
</svg></svg></g></svg></g></svg>